<?xml version="1.0" encoding="UTF-8" standalone="no"?>
<!-- Created with Inkscape (http://www.inkscape.org/) -->

<svg
   width="210mm"
   height="297mm"
   viewBox="0 0 210 297"
   version="1.1"
   id="svg5"
   xml:space="preserve"
   inkscape:version="1.2.2 (b0a8486541, 2022-12-01)"
   sodipodi:docname="speed.svg"
   xmlns:inkscape="http://www.inkscape.org/namespaces/inkscape"
   xmlns:sodipodi="http://sodipodi.sourceforge.net/DTD/sodipodi-0.dtd"
   xmlns="http://www.w3.org/2000/svg"
   xmlns:svg="http://www.w3.org/2000/svg"><sodipodi:namedview
     id="namedview7"
     pagecolor="#ffffff"
     bordercolor="#000000"
     borderopacity="0.25"
     inkscape:showpageshadow="2"
     inkscape:pageopacity="0.0"
     inkscape:pagecheckerboard="0"
     inkscape:deskcolor="#d1d1d1"
     inkscape:document-units="mm"
     showgrid="false"
     inkscape:zoom="0.69664703"
     inkscape:cx="292.83122"
     inkscape:cy="607.91188"
     inkscape:window-width="1920"
     inkscape:window-height="948"
     inkscape:window-x="26"
     inkscape:window-y="23"
     inkscape:window-maximized="0"
     inkscape:current-layer="layer1" /><defs
     id="defs2" /><g
     inkscape:label="Layer 1"
     inkscape:groupmode="layer"
     id="layer1"><g
       style="fill:#24005d;fill-opacity:1;stroke:none;stroke-opacity:1"
       id="g4108"
       transform="matrix(7.0555556,0,0,7.0555556,-6.6868276,43.687275)"
       inkscape:export-filename="speed.png"
       inkscape:export-xdpi="96"
       inkscape:export-ydpi="96"><path
         d="m 11.5,0 c -0.654,0 -0.65,1 0,1 h 6.842 c 0.72,0 0.73,0.408 0.554,0.77 l -3.84,7.5 C 14.884,9.604 15.126,10 15.5,10 h 7.072 c 0.15,0 0.323,0.093 0.39,0.248 0.07,0.155 0.095,0.443 -0.288,0.95 L 10.33,27.57 11.994,17.582 C 12.044,17.277 11.809,16.999 11.5,17 H 7.54 C 6.983,17 6.94,16.836 7.035,16.066 l 1.96,-14.5 C 9.085,0.906 8.092,0.772 8.005,1.434 l -1.962,14.5 C 5.968,16.49 5.983,16.982 6.246,17.394 6.51,17.807 7.014,18 7.539,18 h 3.368 L 9.006,29.418 c -0.086,0.516 0.578,0.8 0.892,0.383 l 13.575,-18 c 0.524,-0.694 0.643,-1.406 0.406,-1.95 -0.24,-0.544 -0.77,-0.85 -1.308,-0.85 h -6.254 l 3.467,-6.77 C 19.972,1.863 20.1,1.375 19.904,0.871 19.707,0.363 19.12,0 18.34,0 Z"
         id="path4099"
         style="fill:#24005d;fill-opacity:1;stroke:none;stroke-opacity:1" /></g></g></svg>
